<svg width="113" height="109" viewBox="0 0 113 109" fill="none" xmlns="http://www.w3.org/2000/svg">
<path d="M35.13 47.0461L27.898 62.8846C27.7198 63.2787 27.2722 63.5303 26.781 63.5303H23.0781C22.587 63.5303 22.1393 63.2745 21.9655 62.8846L18.532 55.3259C18.1974 54.5797 17.8932 53.867 17.6063 53.1585C17.289 53.9383 16.9631 54.6635 16.6371 55.3594L13.0168 62.9056C12.8342 63.2871 12.3909 63.5303 11.9085 63.5303H8.20557C7.69707 63.5303 7.25376 63.2661 7.07992 62.8679L0.312956 47.0251C0.182572 46.7149 0.234726 46.3711 0.460726 46.0986C0.686726 45.8261 1.04746 45.6668 1.43861 45.6668H5.60657C6.13246 45.6668 6.59315 45.9561 6.74961 46.3753L9.72238 54.4246C9.97011 55.1037 10.2005 55.7451 10.4134 56.3572C10.6742 55.7451 10.9567 55.0995 11.2566 54.4162L14.916 46.3166C15.0942 45.9267 15.5375 45.6668 16.0287 45.6668H19.4708C19.9706 45.6668 20.4139 45.9309 20.5921 46.325L24.0603 54.2485C24.3733 54.9612 24.6514 55.6277 24.9078 56.2566C25.1208 55.6613 25.3685 55.0157 25.651 54.3072L28.8542 46.3502C29.0193 45.9393 29.4757 45.6626 29.9842 45.6626H34.0087C34.4042 45.6626 34.7693 45.8261 34.9953 46.0986C35.2256 46.3837 35.2691 46.7317 35.13 47.0461ZM73.9064 47.0461L66.6744 62.8846C66.4962 63.2787 66.0485 63.5303 65.5618 63.5303H61.8502C61.359 63.5303 60.9157 63.2745 60.7375 62.8846L57.3084 55.3259C56.9694 54.5797 56.6652 53.867 56.3783 53.1585C56.0611 53.9383 55.7351 54.6635 55.4091 55.3594L51.7888 62.9056C51.6063 63.2871 51.1673 63.5303 50.6805 63.5303H46.9733C46.4691 63.5303 46.0215 63.2661 45.8476 62.8679L39.0807 47.0251C38.9503 46.7149 39.0024 46.3711 39.2284 46.0986C39.4544 45.8303 39.8195 45.6668 40.2063 45.6668H44.3743C44.9002 45.6668 45.3608 45.9561 45.5173 46.3753L48.4857 54.4246C48.7335 55.1037 48.9638 55.7451 49.1855 56.3572C49.4419 55.7451 49.72 55.0995 50.0199 54.4162L53.6837 46.3166C53.8576 45.9267 54.3009 45.6668 54.7963 45.6668H58.2385C58.7383 45.6668 59.186 45.9309 59.3598 46.325L62.8324 54.2485C63.141 54.9612 63.4191 55.6277 63.6712 56.2566C63.8928 55.6613 64.1319 55.0157 64.4187 54.3072L67.6218 46.3502C67.787 45.9393 68.2477 45.6626 68.7562 45.6626H72.7807C73.1806 45.6626 73.55 45.8261 73.7673 46.0986C73.9977 46.3837 74.0498 46.7317 73.9064 47.0461ZM112.678 47.0461L105.451 62.8846C105.268 63.2787 104.825 63.5303 104.334 63.5303H100.627C100.135 63.5303 99.6878 63.2745 99.5139 62.8846L96.0848 55.3259C95.7458 54.5797 95.4416 53.867 95.1547 53.1585C94.8375 53.9383 94.5072 54.6635 94.1812 55.3594L90.5609 62.9056C90.3783 63.2871 89.935 63.5303 89.4526 63.5303H85.7497C85.2412 63.5303 84.7935 63.2661 84.6197 62.8679L77.8527 47.0251C77.7267 46.7149 77.7701 46.3711 77.9961 46.0986C78.2221 45.8261 78.5872 45.6668 78.9784 45.6668H83.1507C83.6765 45.6668 84.1372 45.9561 84.2893 46.3753L87.2621 54.4246C87.5098 55.1037 87.7402 55.7451 87.9575 56.3572C88.2139 55.7451 88.4921 55.0995 88.792 54.4162L92.4558 46.3166C92.634 45.9267 93.0773 45.6668 93.5727 45.6668H97.0105C97.5103 45.6668 97.958 45.9309 98.1319 46.325L101.6 54.2485C101.913 54.9612 102.196 55.6277 102.452 56.2566C102.665 55.6613 102.913 55.0157 103.195 54.3072L106.403 46.3502C106.563 45.9393 107.02 45.6626 107.533 45.6626H111.557C111.957 45.6626 112.322 45.8261 112.544 46.0986C112.765 46.3837 112.818 46.7317 112.678 47.0461Z" fill="white"/>
<path d="M11.7781 37.7308C13.0081 34.7207 14.5466 31.8574 16.372 29.191C16.6415 29.2414 16.8935 29.3462 17.176 29.3462H25.3468C24.4819 32.0041 23.8039 34.8339 23.2172 37.7308H32.1485C32.8222 34.8004 33.6045 31.9622 34.5911 29.3462H77.9918C78.9783 31.9622 79.7606 34.8004 80.4343 37.7308H89.3656C88.7789 34.8339 88.1009 32.0041 87.236 29.3462H95.4068C95.6893 29.3462 95.9414 29.2414 96.2152 29.191C98.0319 31.8574 99.5748 34.7207 100.805 37.7308H110.023C102.674 15.8637 81.3774 0 56.2914 0C31.2054 0 9.90926 15.8637 2.55557 37.7308H11.7781ZM89.0006 20.9615H83.8373C82.716 18.6851 81.4817 16.5596 80.1388 14.5934C83.3549 16.3877 86.319 18.5258 89.0006 20.9615ZM56.2914 8.38462C63.0323 8.38462 69.256 13.2225 73.9455 20.9615H38.6373C43.3268 13.2225 49.5505 8.38462 56.2914 8.38462ZM32.4354 14.5934C31.0968 16.5596 29.8625 18.6851 28.7411 20.9615H23.5823C26.2638 18.5258 29.2279 16.3877 32.4354 14.5934Z" fill="white"/>
<path d="M100.805 71.2692C99.5748 74.2835 98.0319 77.1385 96.2108 79.809C95.9414 79.7587 95.6893 79.6538 95.4068 79.6538H87.2317C88.0966 76.9959 88.7746 74.1661 89.3613 71.2692H80.43C79.7606 74.1996 78.974 77.042 77.9874 79.6538H34.5911C33.6045 77.042 32.8222 74.1996 32.1485 71.2692H23.2215C23.8083 74.1661 24.4863 76.9959 25.3511 79.6538H17.176C16.8935 79.6538 16.6415 79.7587 16.372 79.809C14.551 77.1385 13.0081 74.2835 11.7781 71.2692H2.55557C9.90926 93.1363 31.2054 109 56.2914 109C81.3774 109 102.674 93.1363 110.023 71.2692H100.805ZM23.5823 88.0385H28.7455C29.8668 90.3149 31.1011 92.4446 32.4397 94.4066C29.2279 92.6123 26.2638 90.4742 23.5823 88.0385ZM56.2914 100.615C49.5505 100.615 43.3268 95.7775 38.6373 88.0385H73.9411C69.256 95.7775 63.0323 100.615 56.2914 100.615ZM80.1431 94.4066C81.4861 92.4446 82.7204 90.3149 83.8417 88.0385H89.0049C86.319 90.4742 83.3549 92.6123 80.1431 94.4066Z" fill="white"/>
</svg>
